<svg width="60" height="60" viewBox="0 0 60 60" fill="none" xmlns="http://www.w3.org/2000/svg">
<g clip-path="url(#clip0)">
<path d="M30.3625 48.75C39.0425 48.75 35.9475 43.255 36.6175 41.675C36.6075 40.495 36.5975 39.36 36.6375 38.67C37.1875 38.825 38.485 39.4825 41.165 42.0875C45.3025 46.2625 46.36 48.75 49.7025 48.75H55.855C57.805 48.75 58.82 47.9425 59.3275 47.265C59.8175 46.61 60.2975 45.46 59.7725 43.67C58.4 39.36 50.395 31.9175 49.8975 31.1325C49.9725 30.9875 50.0925 30.795 50.155 30.695H50.15C51.73 28.6075 57.76 19.5725 58.6475 15.9575C58.65 15.9525 58.6525 15.945 58.6525 15.9375C59.1325 14.2875 58.6925 13.2175 58.2375 12.6125C57.5525 11.7075 56.4625 11.25 54.99 11.25H48.8375C46.7775 11.25 45.215 12.2875 44.425 14.18C43.1025 17.5425 39.3875 24.4575 36.6025 26.905C36.5175 23.4375 36.575 20.79 36.62 18.8225C36.71 14.985 37 11.25 33.0175 11.25H23.3475C20.8525 11.25 18.465 13.975 21.05 17.21C23.31 20.045 21.8625 21.625 22.35 29.49C20.45 27.4525 17.07 21.95 14.68 14.9175C14.01 13.015 12.995 11.2525 10.1375 11.2525H3.98499C1.48999 11.2525 -7.62939e-06 12.6125 -7.62939e-06 14.89C-7.62939e-06 20.005 11.3225 48.75 30.3625 48.75V48.75ZM10.1375 15.0025C10.68 15.0025 10.735 15.0025 11.1375 16.145C13.585 23.3525 19.075 34.0175 23.085 34.0175C26.0975 34.0175 26.0975 30.93 26.0975 29.7675L26.095 20.5125C25.93 17.45 24.815 15.925 24.0825 15L32.8525 15.01C32.8575 15.0525 32.8025 25.2475 32.8775 27.7175C32.8775 31.225 35.6625 33.235 40.01 28.835C44.5975 23.6575 47.77 15.9175 47.8975 15.6025C48.085 15.1525 48.2475 15 48.8375 15H54.99H55.015C55.0125 15.0075 55.0125 15.015 55.01 15.0225C54.4475 17.6475 48.895 26.0125 47.0375 28.61C47.0075 28.65 46.98 28.6925 46.9525 28.735C46.135 30.07 45.47 31.545 47.065 33.62H47.0675C47.2125 33.795 47.59 34.205 48.14 34.775C49.85 36.54 55.715 42.575 56.235 44.975C55.89 45.03 55.515 44.99 49.7025 45.0025C48.465 45.0025 47.4975 43.1525 43.805 39.4275C40.485 36.1975 38.33 34.8775 36.3675 34.8775C32.5575 34.8775 32.835 37.97 32.87 41.71C32.8825 45.765 32.8575 44.4825 32.885 44.7375C32.6625 44.825 32.025 45 30.3625 45C14.5 45 4.16999 19.8225 3.77249 15.01C3.90999 14.9975 5.80249 15.005 10.1375 15.0025V15.0025Z" fill="black"/>
</g>
<defs>
<clipPath id="clip0">
<rect width="60" height="60" fill="white"/>
</clipPath>
</defs>
</svg>
