<svg width="60" height="60" viewBox="0 0 60 60" fill="none" xmlns="http://www.w3.org/2000/svg">
<path fill-rule="evenodd" clip-rule="evenodd" d="M49.8973 10.0202C44.6348 4.75159 37.6362 1.84879 30.1802 1.8457C14.8165 1.8457 2.31272 14.3492 2.30654 29.717C2.30448 34.6296 3.58782 39.4251 6.02713 43.6521L2.07274 58.0957L16.849 54.2196C20.9205 56.4405 25.5042 57.6109 30.1689 57.6123H30.1806C45.5426 57.6123 58.0478 45.1078 58.0536 29.7393C58.0567 22.2913 55.1601 15.2885 49.8973 10.0202ZM30.1802 52.905H30.1706C26.0137 52.9033 21.9367 51.7861 18.3792 49.6757L17.5336 49.1734L8.76513 51.4737L11.1056 42.9246L10.5545 42.0481C8.23538 38.3594 7.01075 34.0961 7.01281 29.7187C7.01762 16.9454 17.4107 6.55334 30.1895 6.55334C36.3776 6.5554 42.1945 8.96828 46.5684 13.3474C50.9424 17.7264 53.3497 23.5471 53.3477 29.7376C53.3422 42.5119 42.9498 52.905 30.1802 52.905V52.905ZM42.888 35.5538C42.1917 35.205 38.7674 33.5207 38.1289 33.2879C37.491 33.0555 37.0261 32.9398 36.5623 33.6367C36.0978 34.3336 34.7633 35.9026 34.3568 36.3671C33.9503 36.832 33.5445 36.8904 32.8479 36.5416C32.1513 36.1931 29.9073 35.4573 27.2469 33.0846C25.1767 31.2379 23.779 28.9572 23.3725 28.2603C22.9667 27.5626 23.3691 27.2221 23.678 26.8389C24.432 25.9027 25.187 24.9211 25.419 24.4566C25.6515 23.9917 25.5351 23.5849 25.3607 23.2364C25.187 22.888 23.7941 19.4599 23.2139 18.065C22.6481 16.7075 22.0744 16.8908 21.6466 16.8695C21.2408 16.8492 20.7763 16.8451 20.3118 16.8451C19.8476 16.8451 19.093 17.0192 18.4544 17.7168C17.8162 18.4141 16.0171 20.0988 16.0171 23.5269C16.0171 26.955 18.5128 30.2666 18.8609 30.7315C19.209 31.1964 23.7721 38.231 30.7584 41.2475C32.4201 41.9657 33.7172 42.3938 34.7289 42.7148C36.3975 43.2449 37.9153 43.1701 39.1156 42.9909C40.4538 42.7907 43.2358 41.3058 43.8167 39.6792C44.3969 38.0522 44.3969 36.6579 44.2225 36.3671C44.0488 36.0767 43.5843 35.9026 42.888 35.5538V35.5538Z" fill="black"/>
</svg>
